<?xml version="1.0" encoding="UTF-8" standalone="no"?>
<!DOCTYPE svg PUBLIC "-//W3C//DTD SVG 1.1//EN" "http://www.w3.org/Graphics/SVG/1.1/DTD/svg11.dtd">
<svg width="100%" height="100%" viewBox="0 0 512 512" version="1.1" xmlns="http://www.w3.org/2000/svg" xmlns:xlink="http://www.w3.org/1999/xlink" xml:space="preserve" xmlns:serif="http://www.serif.com/" style="fill-rule:evenodd;clip-rule:evenodd;stroke-linejoin:round;stroke-miterlimit:2;">
    <g transform="matrix(4.54878,0,0,4.16161,-293.463,-112.561)">
        <path d="M177.072,67.374C177.072,52.16 165.771,39.807 151.851,39.807L89.736,39.807C75.816,39.807 64.515,52.16 64.515,67.374L64.515,122.509C64.515,137.724 75.816,150.077 89.736,150.077L151.851,150.077C165.771,150.077 177.072,137.724 177.072,122.509L177.072,67.374Z" style="fill:rgb(0,24,88);"/>
        <path d="M177.072,67.374C177.072,52.16 165.771,39.807 151.851,39.807L89.736,39.807C75.816,39.807 64.515,52.16 64.515,67.374L64.515,122.509C64.515,137.724 75.816,150.077 89.736,150.077L151.851,150.077C165.771,150.077 177.072,137.724 177.072,122.509L177.072,67.374ZM174.874,67.374L174.874,122.509C174.874,136.398 164.558,147.674 151.851,147.674L89.736,147.674C77.029,147.674 66.713,136.398 66.713,122.509L66.713,67.374C66.713,53.486 77.029,42.21 89.736,42.21C89.736,42.21 151.851,42.21 151.851,42.21C164.558,42.21 174.874,53.486 174.874,67.374Z" style="fill:rgb(0,24,88);"/>
    </g>
    <g transform="matrix(4.54878,0,0,4.16161,-293.463,-165.661)">
        <path d="M177.072,67.374C177.072,52.16 165.771,39.807 151.851,39.807L89.736,39.807C75.816,39.807 64.515,52.16 64.515,67.374L64.515,122.509C64.515,137.724 75.816,150.077 89.736,150.077L151.851,150.077C165.771,150.077 177.072,137.724 177.072,122.509L177.072,67.374Z" style="fill:rgb(254,246,228);"/>
        <path d="M177.072,67.374C177.072,52.16 165.771,39.807 151.851,39.807L89.736,39.807C75.816,39.807 64.515,52.16 64.515,67.374L64.515,122.509C64.515,137.724 75.816,150.077 89.736,150.077L151.851,150.077C165.771,150.077 177.072,137.724 177.072,122.509L177.072,67.374ZM172.676,67.374L172.676,122.509C172.676,135.072 163.345,145.271 151.851,145.271C151.851,145.271 89.736,145.271 89.736,145.271C78.243,145.271 68.912,135.072 68.912,122.509L68.912,67.374C68.912,54.812 78.243,44.613 89.736,44.613L151.851,44.613C163.345,44.613 172.676,54.812 172.676,67.374Z" style="fill:rgb(0,24,88);"/>
    </g>
    <g transform="matrix(25.6265,0,0,25.6265,-1480.68,-6086.01)">
        <path d="M63.269,244.738C63.908,244.738 64.482,244.469 64.892,244.041C65.244,245.307 66.392,246.238 67.771,246.238C69.429,246.238 70.75,244.896 70.75,243.238C70.75,241.58 69.408,240.238 67.771,240.238C66.59,240.238 65.576,240.927 65.087,241.92C64.678,241.357 64.019,240.988 63.269,240.988C63.269,241.77 63.671,242.459 64.28,242.863C63.671,243.269 63.269,243.955 63.269,244.738ZM66.644,242.488L68.873,242.488C69.309,242.488 69.644,242.823 69.644,243.238L65.894,243.238C65.894,242.823 66.23,242.488 66.644,242.488ZM69.687,247.431L67.769,249.988L65.852,247.431C63.958,247.776 62.519,249.43 62.519,251.425C62.519,251.873 62.883,252.237 63.332,252.237L72.206,252.237C72.655,252.237 73.018,251.874 73.018,251.425C73.019,249.43 71.58,247.776 69.687,247.431Z" style="fill:rgb(0,24,88);fill-rule:nonzero;"/>
    </g>
</svg>
