<?xml version="1.0" encoding="UTF-8" standalone="no"?>
<!DOCTYPE svg PUBLIC "-//W3C//DTD SVG 1.1//EN" "http://www.w3.org/Graphics/SVG/1.1/DTD/svg11.dtd">
<svg width="100%" height="100%" viewBox="0 0 1608 230" version="1.1" xmlns="http://www.w3.org/2000/svg" xmlns:xlink="http://www.w3.org/1999/xlink" xml:space="preserve" xmlns:serif="http://www.serif.com/" style="fill-rule:evenodd;clip-rule:evenodd;stroke-linejoin:round;stroke-miterlimit:2;">
    <g transform="matrix(1,0,0,1,391.4,131.025)">
        <path d="M-367.045,-112.551L-206.917,-112.551C-200.773,-112.551 -196.261,-111.831 -193.381,-110.391C-190.501,-108.951 -188.581,-106.695 -187.621,-103.623C-186.661,-100.551 -186.181,-96.519 -186.181,-91.527C-186.181,-86.535 -186.661,-82.551 -187.621,-79.575C-188.581,-76.599 -190.213,-74.535 -192.517,-73.383C-195.973,-71.655 -200.869,-70.791 -207.205,-70.791L-262.213,-70.791L-262.213,74.073C-262.213,78.489 -262.357,81.753 -262.645,83.865C-262.933,85.977 -263.797,88.425 -265.237,91.209C-266.677,93.993 -269.221,95.961 -272.869,97.113C-276.517,98.265 -281.317,98.841 -287.269,98.841C-293.221,98.841 -297.973,98.265 -301.525,97.113C-305.077,95.961 -307.573,93.993 -309.013,91.209C-310.453,88.425 -311.317,85.929 -311.605,83.721C-311.893,81.513 -312.037,78.201 -312.037,73.785L-312.037,-70.791L-367.333,-70.791C-373.477,-70.791 -377.989,-71.511 -380.869,-72.951C-383.749,-74.391 -385.669,-76.647 -386.629,-79.719C-387.589,-82.791 -388.069,-86.823 -388.069,-91.815C-388.069,-96.807 -387.589,-100.791 -386.629,-103.767C-385.669,-106.743 -384.037,-108.807 -381.733,-109.959C-378.277,-111.687 -373.381,-112.551 -367.045,-112.551Z" style="fill:rgb(0,24,88);fill-rule:nonzero;"/>
    </g>
    <g transform="matrix(1,0,0,1,391.4,131.025)">
        <path d="M-170.341,-86.919C-170.341,-91.335 -170.197,-94.647 -169.909,-96.855C-169.621,-99.063 -168.709,-101.607 -167.173,-104.487C-164.485,-109.671 -156.997,-112.263 -144.709,-112.263C-131.269,-112.263 -123.301,-108.711 -120.805,-101.607C-119.845,-98.343 -119.365,-93.351 -119.365,-86.631L-119.365,73.497C-119.365,78.105 -119.509,81.465 -119.797,83.577C-120.085,85.689 -120.997,88.185 -122.533,91.065C-125.221,96.249 -132.709,98.841 -144.997,98.841C-158.437,98.841 -166.309,95.193 -168.613,87.897C-169.765,84.825 -170.341,79.929 -170.341,73.209L-170.341,-86.919Z" style="fill:rgb(0,24,88);fill-rule:nonzero;"/>
    </g>
    <g transform="matrix(1,0,0,1,391.4,131.025)">
        <path d="M128.027,-104.199C129.563,-101.319 130.475,-98.727 130.763,-96.423C131.051,-94.119 131.195,-90.759 131.195,-86.343L131.195,73.497C131.195,86.745 127.547,94.521 120.251,96.825C116.603,97.977 111.995,98.553 106.427,98.553C100.859,98.553 96.443,98.073 93.179,97.113C89.915,96.153 87.419,95.001 85.691,93.657C83.963,92.313 82.619,90.393 81.659,87.897C80.699,84.633 80.219,79.641 80.219,72.921L80.219,-23.559C75.419,-17.607 68.411,-8.151 59.195,4.809C49.979,17.769 44.123,25.881 41.627,29.145C39.131,32.409 37.403,34.665 36.443,35.913C35.483,37.161 33.131,38.889 29.387,41.097C25.643,43.305 21.611,44.409 17.291,44.409C12.971,44.409 9.035,43.401 5.483,41.385C1.931,39.369 -0.613,37.401 -2.149,35.481L-4.453,32.313C-8.293,27.513 -15.877,17.289 -27.205,1.641C-38.533,-14.007 -44.677,-22.407 -45.637,-23.559L-45.637,73.497C-45.637,77.913 -45.781,81.225 -46.069,83.433C-46.357,85.641 -47.269,88.089 -48.805,90.777C-51.685,95.961 -59.173,98.553 -71.269,98.553C-82.981,98.553 -90.277,95.961 -93.157,90.777C-94.693,88.089 -95.605,85.593 -95.893,83.289C-96.181,80.985 -96.325,77.529 -96.325,72.921L-96.325,-86.919C-96.325,-91.335 -96.181,-94.647 -95.893,-96.855C-95.605,-99.063 -94.693,-101.607 -93.157,-104.487C-90.277,-109.479 -82.789,-111.975 -70.693,-111.975C-65.509,-111.975 -61.045,-111.351 -57.301,-110.103C-53.557,-108.855 -51.109,-107.559 -49.957,-106.215L-48.229,-104.487L17.147,-18.663C49.787,-61.863 71.579,-90.375 82.523,-104.199C85.787,-109.383 93.515,-111.975 105.707,-111.975C117.899,-111.975 125.339,-109.383 128.027,-104.199Z" style="fill:rgb(0,24,88);fill-rule:nonzero;"/>
    </g>
    <g transform="matrix(1,0,0,1,414.44,131.025)">
        <path d="M474.347,-103.479C476.171,-106.839 478.907,-109.095 482.555,-110.247C486.203,-111.399 490.763,-111.975 496.235,-111.975C501.707,-111.975 506.123,-111.495 509.483,-110.535C512.843,-109.575 515.339,-108.423 516.971,-107.079C518.603,-105.735 519.803,-103.719 520.571,-101.031C521.723,-97.959 522.299,-93.063 522.299,-86.343L522.299,73.497C522.299,78.105 522.155,81.465 521.867,83.577C521.579,85.689 520.667,88.185 519.131,91.065C516.443,96.249 508.955,98.841 496.667,98.841C489.179,98.841 483.995,98.265 481.115,97.113C478.235,95.961 475.835,94.137 473.915,91.641C430.715,34.041 402.299,-3.591 388.667,-21.255L388.667,73.497C388.667,78.105 388.523,81.465 388.235,83.577C387.947,85.689 387.035,88.185 385.499,91.065C382.811,96.249 375.323,98.841 363.035,98.841C351.131,98.841 343.835,96.249 341.147,91.065C339.611,88.185 338.699,85.593 338.411,83.289C338.123,80.985 337.979,77.625 337.979,73.209L337.979,-87.495C337.979,-94.791 338.891,-100.119 340.715,-103.479C342.539,-106.839 345.275,-109.095 348.923,-110.247C352.571,-111.399 357.275,-111.975 363.035,-111.975C368.795,-111.975 373.355,-111.447 376.715,-110.391C380.075,-109.335 382.427,-108.135 383.771,-106.791C384.539,-106.215 386.747,-103.719 390.395,-99.303C430.907,-44.199 457.979,-7.815 471.611,9.849L471.611,-87.495C471.611,-94.791 472.523,-100.119 474.347,-103.479Z" style="fill:rgb(0,24,88);fill-rule:nonzero;"/>
    </g>
    <g transform="matrix(1,0,0,1,414.44,131.025)">
        <path d="M545.339,-86.919C545.339,-91.335 545.483,-94.647 545.771,-96.855C546.059,-99.063 546.971,-101.607 548.507,-104.487C551.195,-109.671 558.683,-112.263 570.971,-112.263C584.411,-112.263 592.379,-108.711 594.875,-101.607C595.835,-98.343 596.315,-93.351 596.315,-86.631L596.315,73.497C596.315,78.105 596.171,81.465 595.883,83.577C595.595,85.689 594.683,88.185 593.147,91.065C590.459,96.249 582.971,98.841 570.683,98.841C557.243,98.841 549.371,95.193 547.067,87.897C545.915,84.825 545.339,79.929 545.339,73.209L545.339,-86.919Z" style="fill:rgb(0,24,88);fill-rule:nonzero;"/>
    </g>
    <g transform="matrix(1,0,0,1,414.44,131.025)">
        <path d="M755.723,-103.479C757.547,-106.839 760.283,-109.095 763.931,-110.247C767.579,-111.399 772.139,-111.975 777.611,-111.975C783.083,-111.975 787.499,-111.495 790.859,-110.535C794.219,-109.575 796.715,-108.423 798.347,-107.079C799.979,-105.735 801.179,-103.719 801.947,-101.031C803.099,-97.959 803.675,-93.063 803.675,-86.343L803.675,73.497C803.675,78.105 803.531,81.465 803.243,83.577C802.955,85.689 802.043,88.185 800.507,91.065C797.819,96.249 790.331,98.841 778.043,98.841C770.555,98.841 765.371,98.265 762.491,97.113C759.611,95.961 757.211,94.137 755.291,91.641C712.091,34.041 683.675,-3.591 670.043,-21.255L670.043,73.497C670.043,78.105 669.899,81.465 669.611,83.577C669.323,85.689 668.411,88.185 666.875,91.065C664.187,96.249 656.699,98.841 644.411,98.841C632.507,98.841 625.211,96.249 622.523,91.065C620.987,88.185 620.075,85.593 619.787,83.289C619.499,80.985 619.355,77.625 619.355,73.209L619.355,-87.495C619.355,-94.791 620.267,-100.119 622.091,-103.479C623.915,-106.839 626.651,-109.095 630.299,-110.247C633.947,-111.399 638.651,-111.975 644.411,-111.975C650.171,-111.975 654.731,-111.447 658.091,-110.391C661.451,-109.335 663.803,-108.135 665.147,-106.791C665.915,-106.215 668.123,-103.719 671.771,-99.303C712.283,-44.199 739.355,-7.815 752.987,9.849L752.987,-87.495C752.987,-94.791 753.899,-100.119 755.723,-103.479Z" style="fill:rgb(0,24,88);fill-rule:nonzero;"/>
    </g>
    <g transform="matrix(1,0,0,1,414.44,131.025)">
        <path d="M934.427,-112.263C941.915,-112.263 947.435,-111.639 950.987,-110.391C954.539,-109.143 957.083,-107.079 958.619,-104.199C960.731,-99.783 961.787,-93.831 961.787,-86.343L961.787,25.113C961.787,45.273 954.491,63.081 939.899,78.537C925.307,93.993 906.683,101.721 884.027,101.721C871.355,101.721 860.123,98.937 850.331,93.369C841.499,88.569 835.355,84.249 831.899,80.409L829.595,78.105C822.875,71.001 819.515,64.905 819.515,59.817C819.515,54.729 822.875,48.729 829.595,41.817C836.315,34.905 842.267,31.449 847.451,31.449C852.635,31.449 858.395,34.617 864.731,40.953C871.067,47.289 877.931,50.457 885.323,50.457C892.715,50.457 898.811,47.961 903.611,42.969C908.411,37.977 910.811,31.353 910.811,23.097L910.811,-84.615C910.811,-96.135 912.731,-103.527 916.571,-106.791C920.987,-110.439 926.939,-112.263 934.427,-112.263Z" style="fill:rgb(0,24,88);fill-rule:nonzero;"/>
    </g>
    <g transform="matrix(1,0,0,1,414.44,131.025)">
        <path d="M1106.65,-97.287L1184.41,63.417C1187.67,69.945 1189.31,74.841 1189.31,78.105C1189.31,85.017 1183.74,91.257 1172.6,96.825C1166.08,100.089 1160.94,101.721 1157.19,101.721C1153.45,101.721 1150.38,100.857 1147.98,99.129C1145.58,97.401 1143.85,95.577 1142.8,93.657C1141.74,91.737 1140.25,88.857 1138.33,85.017L1123.36,53.913L1043.58,53.913L1028.6,85.017C1026.68,88.857 1025.19,91.641 1024.14,93.369C1023.08,95.097 1021.36,96.873 1018.96,98.697C1016.56,100.521 1013.48,101.433 1009.74,101.433C1006,101.433 1000.86,99.801 994.331,96.537C983.195,91.161 977.627,85.017 977.627,78.105C977.627,74.841 979.259,69.945 982.523,63.417L1060.28,-97.575C1062.39,-101.991 1065.61,-105.543 1069.93,-108.231C1074.25,-110.919 1078.81,-112.263 1083.61,-112.263C1093.98,-112.263 1101.66,-107.271 1106.65,-97.287ZM1083.32,-28.167L1064.32,11.289L1102.62,11.289L1083.32,-28.167Z" style="fill:rgb(0,24,88);fill-rule:nonzero;"/>
    </g>
    <g transform="matrix(0.744322,0,0,0.744322,139.883,16.438)">
        <path d="M563.903,106.938C579.232,106.938 593.013,100.47 602.857,90.204C611.294,120.579 638.857,142.938 671.932,142.938C711.728,142.938 743.425,110.735 743.425,70.938C743.425,31.141 711.222,-1.062 671.932,-1.062C643.593,-1.062 619.265,15.465 607.525,39.298C597.71,25.798 581.903,16.938 563.903,16.938C563.903,35.709 573.533,52.235 588.164,61.938C573.539,71.67 563.903,88.151 563.903,106.938L563.903,106.938ZM644.903,52.938L698.397,52.938C708.86,52.938 716.903,60.982 716.903,70.938L626.903,70.938C626.903,60.982 634.947,52.938 644.903,52.938ZM717.916,171.57L671.903,232.938L625.891,171.57C580.418,179.838 545.903,219.551 545.903,267.42C545.903,278.186 554.633,286.921 565.4,286.921L778.385,286.921C789.151,286.921 797.881,278.191 797.881,267.42C797.903,219.551 763.366,179.838 717.916,171.57Z" style="fill:rgb(0,24,88);fill-rule:nonzero;"/>
    </g>
    <g transform="matrix(0.744322,0,0,0.744322,139.307,4.02866)">
        <path d="M563.903,106.938C579.232,106.938 593.013,100.47 602.857,90.204C611.294,120.579 638.857,142.938 671.932,142.938C711.728,142.938 743.425,110.735 743.425,70.938C743.425,31.141 711.222,-1.062 671.932,-1.062C643.593,-1.062 619.265,15.465 607.525,39.298C597.71,25.798 581.903,16.938 563.903,16.938C563.903,35.709 573.533,52.235 588.164,61.938C573.539,71.67 563.903,88.151 563.903,106.938L563.903,106.938ZM644.903,52.938L698.397,52.938C708.86,52.938 716.903,60.982 716.903,70.938L626.903,70.938C626.903,60.982 634.947,52.938 644.903,52.938ZM717.916,171.57L671.903,232.938L625.891,171.57C580.418,179.838 545.903,219.551 545.903,267.42C545.903,278.186 554.633,286.921 565.4,286.921L778.385,286.921C789.151,286.921 797.881,278.191 797.881,267.42C797.903,219.551 763.366,179.838 717.916,171.57Z" style="fill:rgb(254,246,228);fill-rule:nonzero;stroke:rgb(0,24,88);stroke-width:8.06px;"/>
    </g>
    <g transform="matrix(1,0,0,1,391.4,115.226)">
        <path d="M-367.045,-112.551L-206.917,-112.551C-200.773,-112.551 -196.261,-111.831 -193.381,-110.391C-190.501,-108.951 -188.581,-106.695 -187.621,-103.623C-186.661,-100.551 -186.181,-96.519 -186.181,-91.527C-186.181,-86.535 -186.661,-82.551 -187.621,-79.575C-188.581,-76.599 -190.213,-74.535 -192.517,-73.383C-195.973,-71.655 -200.869,-70.791 -207.205,-70.791L-262.213,-70.791L-262.213,74.073C-262.213,78.489 -262.357,81.753 -262.645,83.865C-262.933,85.977 -263.797,88.425 -265.237,91.209C-266.677,93.993 -269.221,95.961 -272.869,97.113C-276.517,98.265 -281.317,98.841 -287.269,98.841C-293.221,98.841 -297.973,98.265 -301.525,97.113C-305.077,95.961 -307.573,93.993 -309.013,91.209C-310.453,88.425 -311.317,85.929 -311.605,83.721C-311.893,81.513 -312.037,78.201 -312.037,73.785L-312.037,-70.791L-367.333,-70.791C-373.477,-70.791 -377.989,-71.511 -380.869,-72.951C-383.749,-74.391 -385.669,-76.647 -386.629,-79.719C-387.589,-82.791 -388.069,-86.823 -388.069,-91.815C-388.069,-96.807 -387.589,-100.791 -386.629,-103.767C-385.669,-106.743 -384.037,-108.807 -381.733,-109.959C-378.277,-111.687 -373.381,-112.551 -367.045,-112.551Z" style="fill:rgb(254,246,228);fill-rule:nonzero;stroke:rgb(0,24,88);stroke-width:6px;"/>
    </g>
    <g transform="matrix(1,0,0,1,391.4,115.226)">
        <path d="M-170.341,-86.919C-170.341,-91.335 -170.197,-94.647 -169.909,-96.855C-169.621,-99.063 -168.709,-101.607 -167.173,-104.487C-164.485,-109.671 -156.997,-112.263 -144.709,-112.263C-131.269,-112.263 -123.301,-108.711 -120.805,-101.607C-119.845,-98.343 -119.365,-93.351 -119.365,-86.631L-119.365,73.497C-119.365,78.105 -119.509,81.465 -119.797,83.577C-120.085,85.689 -120.997,88.185 -122.533,91.065C-125.221,96.249 -132.709,98.841 -144.997,98.841C-158.437,98.841 -166.309,95.193 -168.613,87.897C-169.765,84.825 -170.341,79.929 -170.341,73.209L-170.341,-86.919Z" style="fill:rgb(254,246,228);fill-rule:nonzero;stroke:rgb(0,24,88);stroke-width:6px;"/>
    </g>
    <g transform="matrix(1,0,0,1,391.4,115.226)">
        <path d="M128.027,-104.199C129.563,-101.319 130.475,-98.727 130.763,-96.423C131.051,-94.119 131.195,-90.759 131.195,-86.343L131.195,73.497C131.195,86.745 127.547,94.521 120.251,96.825C116.603,97.977 111.995,98.553 106.427,98.553C100.859,98.553 96.443,98.073 93.179,97.113C89.915,96.153 87.419,95.001 85.691,93.657C83.963,92.313 82.619,90.393 81.659,87.897C80.699,84.633 80.219,79.641 80.219,72.921L80.219,-23.559C75.419,-17.607 68.411,-8.151 59.195,4.809C49.979,17.769 44.123,25.881 41.627,29.145C39.131,32.409 37.403,34.665 36.443,35.913C35.483,37.161 33.131,38.889 29.387,41.097C25.643,43.305 21.611,44.409 17.291,44.409C12.971,44.409 9.035,43.401 5.483,41.385C1.931,39.369 -0.613,37.401 -2.149,35.481L-4.453,32.313C-8.293,27.513 -15.877,17.289 -27.205,1.641C-38.533,-14.007 -44.677,-22.407 -45.637,-23.559L-45.637,73.497C-45.637,77.913 -45.781,81.225 -46.069,83.433C-46.357,85.641 -47.269,88.089 -48.805,90.777C-51.685,95.961 -59.173,98.553 -71.269,98.553C-82.981,98.553 -90.277,95.961 -93.157,90.777C-94.693,88.089 -95.605,85.593 -95.893,83.289C-96.181,80.985 -96.325,77.529 -96.325,72.921L-96.325,-86.919C-96.325,-91.335 -96.181,-94.647 -95.893,-96.855C-95.605,-99.063 -94.693,-101.607 -93.157,-104.487C-90.277,-109.479 -82.789,-111.975 -70.693,-111.975C-65.509,-111.975 -61.045,-111.351 -57.301,-110.103C-53.557,-108.855 -51.109,-107.559 -49.957,-106.215L-48.229,-104.487L17.147,-18.663C49.787,-61.863 71.579,-90.375 82.523,-104.199C85.787,-109.383 93.515,-111.975 105.707,-111.975C117.899,-111.975 125.339,-109.383 128.027,-104.199Z" style="fill:rgb(254,246,228);fill-rule:nonzero;stroke:rgb(0,24,88);stroke-width:6px;"/>
    </g>
    <g transform="matrix(1,0,0,1,414.44,115.226)">
        <path d="M474.347,-103.479C476.171,-106.839 478.907,-109.095 482.555,-110.247C486.203,-111.399 490.763,-111.975 496.235,-111.975C501.707,-111.975 506.123,-111.495 509.483,-110.535C512.843,-109.575 515.339,-108.423 516.971,-107.079C518.603,-105.735 519.803,-103.719 520.571,-101.031C521.723,-97.959 522.299,-93.063 522.299,-86.343L522.299,73.497C522.299,78.105 522.155,81.465 521.867,83.577C521.579,85.689 520.667,88.185 519.131,91.065C516.443,96.249 508.955,98.841 496.667,98.841C489.179,98.841 483.995,98.265 481.115,97.113C478.235,95.961 475.835,94.137 473.915,91.641C430.715,34.041 402.299,-3.591 388.667,-21.255L388.667,73.497C388.667,78.105 388.523,81.465 388.235,83.577C387.947,85.689 387.035,88.185 385.499,91.065C382.811,96.249 375.323,98.841 363.035,98.841C351.131,98.841 343.835,96.249 341.147,91.065C339.611,88.185 338.699,85.593 338.411,83.289C338.123,80.985 337.979,77.625 337.979,73.209L337.979,-87.495C337.979,-94.791 338.891,-100.119 340.715,-103.479C342.539,-106.839 345.275,-109.095 348.923,-110.247C352.571,-111.399 357.275,-111.975 363.035,-111.975C368.795,-111.975 373.355,-111.447 376.715,-110.391C380.075,-109.335 382.427,-108.135 383.771,-106.791C384.539,-106.215 386.747,-103.719 390.395,-99.303C430.907,-44.199 457.979,-7.815 471.611,9.849L471.611,-87.495C471.611,-94.791 472.523,-100.119 474.347,-103.479Z" style="fill:rgb(254,246,228);fill-rule:nonzero;stroke:rgb(0,24,88);stroke-width:6px;"/>
    </g>
    <g transform="matrix(1,0,0,1,414.44,115.226)">
        <path d="M545.339,-86.919C545.339,-91.335 545.483,-94.647 545.771,-96.855C546.059,-99.063 546.971,-101.607 548.507,-104.487C551.195,-109.671 558.683,-112.263 570.971,-112.263C584.411,-112.263 592.379,-108.711 594.875,-101.607C595.835,-98.343 596.315,-93.351 596.315,-86.631L596.315,73.497C596.315,78.105 596.171,81.465 595.883,83.577C595.595,85.689 594.683,88.185 593.147,91.065C590.459,96.249 582.971,98.841 570.683,98.841C557.243,98.841 549.371,95.193 547.067,87.897C545.915,84.825 545.339,79.929 545.339,73.209L545.339,-86.919Z" style="fill:rgb(254,246,228);fill-rule:nonzero;stroke:rgb(0,24,88);stroke-width:6px;"/>
    </g>
    <g transform="matrix(1,0,0,1,414.44,115.226)">
        <path d="M755.723,-103.479C757.547,-106.839 760.283,-109.095 763.931,-110.247C767.579,-111.399 772.139,-111.975 777.611,-111.975C783.083,-111.975 787.499,-111.495 790.859,-110.535C794.219,-109.575 796.715,-108.423 798.347,-107.079C799.979,-105.735 801.179,-103.719 801.947,-101.031C803.099,-97.959 803.675,-93.063 803.675,-86.343L803.675,73.497C803.675,78.105 803.531,81.465 803.243,83.577C802.955,85.689 802.043,88.185 800.507,91.065C797.819,96.249 790.331,98.841 778.043,98.841C770.555,98.841 765.371,98.265 762.491,97.113C759.611,95.961 757.211,94.137 755.291,91.641C712.091,34.041 683.675,-3.591 670.043,-21.255L670.043,73.497C670.043,78.105 669.899,81.465 669.611,83.577C669.323,85.689 668.411,88.185 666.875,91.065C664.187,96.249 656.699,98.841 644.411,98.841C632.507,98.841 625.211,96.249 622.523,91.065C620.987,88.185 620.075,85.593 619.787,83.289C619.499,80.985 619.355,77.625 619.355,73.209L619.355,-87.495C619.355,-94.791 620.267,-100.119 622.091,-103.479C623.915,-106.839 626.651,-109.095 630.299,-110.247C633.947,-111.399 638.651,-111.975 644.411,-111.975C650.171,-111.975 654.731,-111.447 658.091,-110.391C661.451,-109.335 663.803,-108.135 665.147,-106.791C665.915,-106.215 668.123,-103.719 671.771,-99.303C712.283,-44.199 739.355,-7.815 752.987,9.849L752.987,-87.495C752.987,-94.791 753.899,-100.119 755.723,-103.479Z" style="fill:rgb(254,246,228);fill-rule:nonzero;stroke:rgb(0,24,88);stroke-width:6px;"/>
    </g>
    <g transform="matrix(1,0,0,1,414.44,115.226)">
        <path d="M934.427,-112.263C941.915,-112.263 947.435,-111.639 950.987,-110.391C954.539,-109.143 957.083,-107.079 958.619,-104.199C960.731,-99.783 961.787,-93.831 961.787,-86.343L961.787,25.113C961.787,45.273 954.491,63.081 939.899,78.537C925.307,93.993 906.683,101.721 884.027,101.721C871.355,101.721 860.123,98.937 850.331,93.369C841.499,88.569 835.355,84.249 831.899,80.409L829.595,78.105C822.875,71.001 819.515,64.905 819.515,59.817C819.515,54.729 822.875,48.729 829.595,41.817C836.315,34.905 842.267,31.449 847.451,31.449C852.635,31.449 858.395,34.617 864.731,40.953C871.067,47.289 877.931,50.457 885.323,50.457C892.715,50.457 898.811,47.961 903.611,42.969C908.411,37.977 910.811,31.353 910.811,23.097L910.811,-84.615C910.811,-96.135 912.731,-103.527 916.571,-106.791C920.987,-110.439 926.939,-112.263 934.427,-112.263Z" style="fill:rgb(254,246,228);fill-rule:nonzero;stroke:rgb(0,24,88);stroke-width:6px;"/>
    </g>
    <g transform="matrix(1,0,0,1,414.44,115.226)">
        <path d="M1106.65,-97.287L1184.41,63.417C1187.67,69.945 1189.31,74.841 1189.31,78.105C1189.31,85.017 1183.74,91.257 1172.6,96.825C1166.08,100.089 1160.94,101.721 1157.19,101.721C1153.45,101.721 1150.38,100.857 1147.98,99.129C1145.58,97.401 1143.85,95.577 1142.8,93.657C1141.74,91.737 1140.25,88.857 1138.33,85.017L1123.36,53.913L1043.58,53.913L1028.6,85.017C1026.68,88.857 1025.19,91.641 1024.14,93.369C1023.08,95.097 1021.36,96.873 1018.96,98.697C1016.56,100.521 1013.48,101.433 1009.74,101.433C1006,101.433 1000.86,99.801 994.331,96.537C983.195,91.161 977.627,85.017 977.627,78.105C977.627,74.841 979.259,69.945 982.523,63.417L1060.28,-97.575C1062.39,-101.991 1065.61,-105.543 1069.93,-108.231C1074.25,-110.919 1078.81,-112.263 1083.61,-112.263C1093.98,-112.263 1101.66,-107.271 1106.65,-97.287ZM1083.32,-28.167L1064.32,11.289L1102.62,11.289L1083.32,-28.167Z" style="fill:rgb(254,246,228);fill-rule:nonzero;stroke:rgb(0,24,88);stroke-width:6px;"/>
    </g>
</svg>
