<?xml version="1.0" encoding="UTF-8" standalone="no"?>
<!DOCTYPE svg PUBLIC "-//W3C//DTD SVG 1.1//EN" "http://www.w3.org/Graphics/SVG/1.1/DTD/svg11.dtd">
<svg width="100%" height="100%" viewBox="0 0 190 240" version="1.1" xmlns="http://www.w3.org/2000/svg" xmlns:xlink="http://www.w3.org/1999/xlink" xml:space="preserve" xmlns:serif="http://www.serif.com/" style="fill-rule:evenodd;clip-rule:evenodd;stroke-linejoin:round;stroke-miterlimit:2;">
    <g transform="matrix(0.744322,0,0,0.744322,-404.528,19.3664)">
        <path d="M563.903,106.938C579.232,106.938 593.013,100.47 602.857,90.204C611.294,120.579 638.857,142.938 671.932,142.938C711.728,142.938 743.425,110.735 743.425,70.938C743.425,31.141 711.222,-1.062 671.932,-1.062C643.593,-1.062 619.265,15.465 607.525,39.298C597.71,25.798 581.903,16.938 563.903,16.938C563.903,35.709 573.533,52.235 588.164,61.938C573.539,71.67 563.903,88.151 563.903,106.938L563.903,106.938ZM644.903,52.938L698.397,52.938C708.86,52.938 716.903,60.982 716.903,70.938L626.903,70.938C626.903,60.982 634.947,52.938 644.903,52.938ZM717.916,171.57L671.903,232.938L625.891,171.57C580.418,179.838 545.903,219.551 545.903,267.42C545.903,278.186 554.633,286.921 565.4,286.921L778.385,286.921C789.151,286.921 797.881,278.191 797.881,267.42C797.903,219.551 763.366,179.838 717.916,171.57Z" style="fill:rgb(0,24,88);fill-rule:nonzero;"/>
    </g>
    <g transform="matrix(0.744322,0,0,0.744322,-405.104,3.61148)">
        <path d="M563.903,106.938C579.232,106.938 593.013,100.47 602.857,90.204C611.294,120.579 638.857,142.938 671.932,142.938C711.728,142.938 743.425,110.735 743.425,70.938C743.425,31.141 711.222,-1.062 671.932,-1.062C643.593,-1.062 619.265,15.465 607.525,39.298C597.71,25.798 581.903,16.938 563.903,16.938C563.903,35.709 573.533,52.235 588.164,61.938C573.539,71.67 563.903,88.151 563.903,106.938L563.903,106.938ZM644.903,52.938L698.397,52.938C708.86,52.938 716.903,60.982 716.903,70.938L626.903,70.938C626.903,60.982 634.947,52.938 644.903,52.938ZM717.916,171.57L671.903,232.938L625.891,171.57C580.418,179.838 545.903,219.551 545.903,267.42C545.903,278.186 554.633,286.921 565.4,286.921L778.385,286.921C789.151,286.921 797.881,278.191 797.881,267.42C797.903,219.551 763.366,179.838 717.916,171.57Z" style="fill:rgb(254,246,228);fill-rule:nonzero;stroke:rgb(0,24,88);stroke-width:8.06px;"/>
    </g>
</svg>
